<?xml version="1.0" encoding="UTF-8" standalone="no"?>
<!-- Created with Inkscape (http://www.inkscape.org/) -->

<svg
   version="1.1"
   id="svg1"
   width="1024"
   height="1024"
   viewBox="0 0 1024 1024"
   sodipodi:docname="Zero_Logo_monochrome_3.svg"
   inkscape:export-filename="Zero_Logo_monochrome_white.png"
   inkscape:export-xdpi="96"
   inkscape:export-ydpi="96"
   inkscape:version="1.4.2 (f4327f4, 2025-05-13)"
   xml:space="preserve"
   xmlns:inkscape="http://www.inkscape.org/namespaces/inkscape"
   xmlns:sodipodi="http://sodipodi.sourceforge.net/DTD/sodipodi-0.dtd"
   xmlns="http://www.w3.org/2000/svg"
   xmlns:svg="http://www.w3.org/2000/svg"><defs
     id="defs1" /><sodipodi:namedview
     id="namedview1"
     pagecolor="#000000"
     bordercolor="#000000"
     borderopacity="0"
     inkscape:showpageshadow="2"
     inkscape:pageopacity="0.0"
     inkscape:pagecheckerboard="0"
     inkscape:deskcolor="#d1d1d1"
     inkscape:zoom="0.35355339"
     inkscape:cx="289.91378"
     inkscape:cy="352.13918"
     inkscape:window-width="1920"
     inkscape:window-height="991"
     inkscape:window-x="-9"
     inkscape:window-y="-9"
     inkscape:window-maximized="1"
     inkscape:current-layer="g52" /><g
     inkscape:groupmode="layer"
     inkscape:label="Image"
     id="g1"><g
       id="g52"
       transform="translate(10.260183,4.650695)"><path
         d="m 95.732112,602.48258 c -0.466782,-0.52186 -0.848693,-8.10812 -0.848693,-16.85833 v -15.90948 l 26.415411,-28.38806 c 14.52847,-15.61344 38.30233,-41.09588 52.83081,-56.62764 14.52847,-15.53176 26.4154,-28.78892 26.4154,-29.46034 0,-0.67142 -23.34422,-1.38805 -51.87604,-1.59255 L 96.792961,453.27439 V 432.63669 411.999 l 84.974849,-0.36592 84.97487,-0.36591 -0.10276,19.58032 -0.10276,19.58032 -18.67432,19.79925 c -69.6438,73.83914 -81.68945,86.90398 -81.68945,88.60191 0,1.55931 9.67462,1.90379 53.46733,1.90379 h 53.46732 v 21.34935 21.34934 h -88.26352 c -48.54496,0 -88.645441,-0.42699 -89.112223,-0.94887 z m 214.882238,-0.81992 c -0.33636,-0.9842 -0.46319,-44.06113 -0.28182,-95.72654 l 0.32975,-93.93712 h 83.38357 83.38357 v 19.92605 19.92605 l -61.74204,0.71165 -61.74203,0.71164 v 16.36783 16.36784 l 51.55778,0.71165 51.55778,0.71164 v 18.50277 18.50276 l -51.55778,0.71165 -51.55778,0.71164 v 17.79112 17.79112 l 62.09517,0.36938 62.09518,0.36939 -0.35315,20.26831 -0.35313,20.26831 -83.10172,0.36614 c -65.80543,0.28993 -83.22903,-0.006 -83.71335,-1.42328 z m 205.64252,-94.30325 v -96.07206 h 67.29692 c 39.88155,0 70.05254,0.58426 74.06105,1.43418 15.99399,3.39121 27.67966,12.72406 34.73747,27.74326 3.98244,8.47495 4.0163,8.72579 4.44874,33.06352 0.41908,23.57853 0.31481,24.81944 -2.70519,32.19483 -1.72776,4.21907 -5.25991,10.29297 -7.84939,13.49756 -4.39795,5.44261 -18.05095,14.46956 -21.88468,14.46956 -0.93849,0 -1.70624,0.85242 -1.70624,1.89427 0,1.04185 8.67647,15.61278 19.28107,32.37984 10.60462,16.76706 19.55083,31.60641 19.88044,32.97632 0.55554,2.30831 -1.17349,2.49076 -23.60443,2.49076 h -24.20378 l -18.13305,-30.2449 c -9.97319,-16.6347 -19.29828,-31.68599 -20.72267,-33.44731 -2.52214,-3.11902 -3.25667,-3.2024 -28.21029,-3.2024 -18.22981,0 -26.06137,0.4927 -27.1483,1.70795 -1.09683,1.22628 -1.52763,10.65886 -1.52763,33.4473 v 31.73936 h -21.00502 -21.00502 z m 134.84374,-15.7827 c 3.85971,-3.63109 3.91674,-3.87875 3.91674,-17.00012 0,-12.02237 -0.29819,-13.70323 -3.07144,-17.30879 l -3.07156,-3.99341 h -44.98539 -44.98554 l -0.35695,19.14262 c -0.19632,10.52843 -0.0713,19.97551 0.27827,20.99352 0.50439,1.46947 9.67454,1.85092 44.49721,1.85092 h 43.86193 z"
         style="fill:#ffffff;stroke-width:1.34607"
         id="path1-8"
         sodipodi:nodetypes="sscsssscccccccssscccsssscccccccccccccccccccccssccssssssssssscsssssccccssscccssscs" /><g
         id="g4"
         style="fill:#ffffff;fill-opacity:1"
         clip-path="none"
         transform="matrix(1.1990886,0,0,1.4232895,-94.153473,-236.4237)"><g
           id="g51"
           style="fill:#ffffff"><path
             id="path1-82"
             style="fill:#ffffff;fill-opacity:1;stroke-width:0.308041"
             d="m 765.33203,453.06836 c -24.27185,-9.4e-4 -26.05382,0.029 -29.7793,0.49805 -6.23271,0.78479 -10.32081,1.78765 -15.72656,3.85742 -10.90305,4.17459 -19.79177,11.34687 -23.79297,19.19922 -2.5023,4.91108 -2.50455,4.43745 -2.59765,21.54297 l -0.13867,25.61523 h 19.63476 11.63281 l 0.13282,-23.62305 c 0.0741,-13.2136 0.1573,-9.67154 0.96289,-11.24023 2.34367,-4.5636 16.14712,-8.21767 22.58789,-9.18555 1.02356,-0.15381 7.72359,-0.25967 16.60351,-0.26367 12.16796,-0.005 15.29848,0.0633 17.13282,0.375 1.58604,0.26955 3.63997,0.69299 5.85937,1.24805 l 26.1543,-22.69532 c -5.68929,-2.49386 -12.204,-4.201 -19.22461,-4.94336 -3.00508,-0.31777 -8.02655,-0.38401 -29.44141,-0.38476 z m 70.48242,29.33203 -31.06445,26.95508 0.11914,14.30078 11.50391,0.0644 c 17.96312,0.0593 19.51976,0.0313 19.74609,-0.35351 0.13504,-0.2298 0.18136,-17.36941 0.10156,-25.86524 -0.0758,-8.07947 -0.11478,-12.32826 -0.40625,-15.10156 z" /><path
             id="path1-82-9"
             style="fill:#ffffff;fill-opacity:1;stroke-width:0.308041"
             d="m 804.99023,521.36523 -0.13085,23.62305 c -0.0741,13.2136 -0.15926,9.67155 -0.96485,11.24024 -2.34367,4.5636 -16.14517,8.21766 -22.58594,9.18554 -1.02356,0.15381 -7.72359,0.25967 -16.60351,0.26367 -12.16796,0.005 -15.29848,-0.0633 -17.13281,-0.375 -1.58605,-0.26955 -3.63997,-0.69299 -5.85938,-1.24804 l -26.15234,22.69336 c 5.6889,2.49347 12.2027,4.20303 19.22265,4.94531 3.00508,0.31778 8.0246,0.38401 29.43946,0.38476 24.27185,9.4e-4 26.05577,-0.0289 29.78125,-0.49804 6.23271,-0.78479 10.32081,-1.78765 15.72656,-3.85742 10.90305,-4.17459 19.79177,-11.34687 23.79297,-19.19922 2.5023,-4.91108 2.50455,-4.4394 2.59765,-21.54492 l 0.13868,-25.61329 H 816.625 Z m -91.80664,0.0606 c -17.96312,-0.0593 -19.52171,-0.0313 -19.74804,0.35352 -0.13504,0.2298 -0.17941,17.3694 -0.0996,25.86523 0.0758,8.07841 0.11489,12.32629 0.40625,15.09961 l 31.0625,-26.95312 -0.11914,-14.30079 z" /></g></g></g></g></svg>
